<?xml version="1.0" encoding="utf-8"?>
<!-- Generator: Adobe Illustrator 27.5.0, SVG Export Plug-In . SVG Version: 6.00 Build 0)  -->
<svg version="1.1" xmlns="http://www.w3.org/2000/svg" xmlns:xlink="http://www.w3.org/1999/xlink" x="0px" y="0px"
	 viewBox="0 0 750 500" style="enable-background:new 0 0 750 500;" xml:space="preserve">
<g id="BACKGROUND">
	<rect style="fill:#FFFFFF;" width="750" height="500"/>
</g>
<g id="OBJECTS">
	<g>
		<path style="fill:#EBEFF2;" d="M630.607,465.978H118.465c-4.605,0-8.339-3.733-8.339-8.339l0,0c0-4.605,3.733-8.339,8.339-8.339
			h512.142c4.605,0,8.339,3.733,8.339,8.339l0,0C638.946,462.244,635.212,465.978,630.607,465.978z"/>
		<g>
			<path style="fill:#3A3578;" d="M282.414,83.547v97.434h-41.971v-6.542c3.411-2.198,5.66-6.043,5.66-10.4
				c0-6.861-5.558-12.406-12.406-12.406c-6.848,0-12.406,5.545-12.406,12.406c0,4.357,2.249,8.19,5.647,10.4v6.542H184.98V83.547
				H282.414z"/>
			
				<ellipse transform="matrix(0.3312 -0.9435 0.9435 0.3312 94.333 264.4122)" style="fill:#3A3578;" cx="233.695" cy="65.659" rx="12.405" ry="12.405"/>
			<rect x="226.94" y="71.163" style="fill:#3A3578;" width="13.51" height="19.514"/>
			<g>
				<g>
					<path style="fill:#3A3578;" d="M300.452,143.865c-6.851,0-12.405-5.554-12.405-12.405c0-6.851,5.554-12.405,12.405-12.405
						c6.851,0,12.405,5.554,12.405,12.405C312.857,138.311,307.303,143.865,300.452,143.865z"/>
					<rect x="275.434" y="124.705" style="fill:#3A3578;" width="19.514" height="13.51"/>
					<path style="fill:#3A3578;" d="M166.062,119.054c6.851,0,12.405,5.554,12.405,12.405c0,6.851-5.554,12.405-12.405,12.405
						c-6.851,0-12.405-5.554-12.405-12.405C153.658,124.608,159.211,119.054,166.062,119.054z"/>
					<rect x="171.566" y="124.705" style="fill:#3A3578;" width="19.514" height="13.51"/>
				</g>
			</g>
		</g>
		<g>
			<g>
				<path style="fill:#EC755F;" d="M466.925,414.544l-19.274,28.488c-1.695,2.505-0.311,5.93,2.649,6.554l0,0
					c1.409,0.297,2.873-0.138,3.891-1.157L478.21,424.4L466.925,414.544z"/>
				<polygon style="fill:#EC755F;" points="466.165,285.808 480.852,302.798 476.532,307.406 458.39,291.82 				"/>
				<path style="fill:#EC755F;" d="M456.307,274.843c0,3.246-2.631,5.877-5.877,5.877c-3.246,0-5.877-2.631-5.877-5.877
					c0-3.246,2.631-5.877,5.877-5.877C453.676,268.966,456.307,271.598,456.307,274.843z"/>
				<path style="fill:#FFC080;" d="M481.782,281.696c-7.036,4.913-17.009,13.051-26.067,24.689
					c-3.77,4.855-11.433,3.459-13.174-2.439c-2.609-8.806-1.735-18.621,2.902-26.003c0.006-0.012,0.012-0.023,0.018-0.029
					c1.009-1.606,2.199-3.096,3.571-4.438c8.279-8.097,18.445-9.991,28.676-6.045c1.032,0.399,2.07,0.856,3.101,1.372
					C485.915,271.359,486.461,278.424,481.782,281.696z"/>
				<path style="opacity:0.32;fill:#E25A47;" d="M481.782,281.696c-7.036,4.913-17.009,13.051-26.067,24.689
					c-3.77,4.855-11.433,3.459-13.174-2.439c-2.609-8.806-1.735-18.621,2.902-26.003c-4.984,8.982-2.902,26.003,8.841,21.459
					c11.198-4.339,27.797-18.281,23.423-31.971c1.032,0.399,2.07,0.856,3.101,1.372
					C485.915,271.359,486.461,278.424,481.782,281.696z"/>
			</g>
			<g>
				<path style="fill:#EC755F;" d="M601.561,414.544l19.274,28.488c1.695,2.505,0.311,5.93-2.649,6.554l0,0
					c-1.409,0.297-2.873-0.138-3.891-1.157L590.277,424.4L601.561,414.544z"/>
				<polygon style="fill:#EC755F;" points="602.322,285.808 587.635,302.798 591.955,307.406 610.097,291.82 				"/>
				<path style="fill:#EC755F;" d="M612.179,274.843c0,3.246,2.631,5.877,5.877,5.877c3.246,0,5.877-2.631,5.877-5.877
					c0-3.246-2.631-5.877-5.877-5.877C614.811,268.966,612.179,271.598,612.179,274.843z"/>
				<path style="fill:#FFC080;" d="M586.705,281.696c7.036,4.913,17.009,13.051,26.067,24.689c3.77,4.855,11.433,3.459,13.174-2.439
					c2.609-8.806,1.735-18.621-2.902-26.003c-0.006-0.012-0.012-0.023-0.018-0.029c-1.008-1.606-2.199-3.096-3.571-4.438
					c-8.279-8.097-18.445-9.991-28.676-6.045c-1.032,0.399-2.07,0.856-3.102,1.372C582.571,271.359,582.026,278.424,586.705,281.696
					z"/>
				<path style="opacity:0.32;fill:#E25A47;" d="M586.705,281.696c7.036,4.913,17.009,13.051,26.067,24.689
					c3.77,4.855,11.433,3.459,13.174-2.439c2.609-8.806,1.735-18.621-2.902-26.003c4.984,8.982,2.902,26.003-8.841,21.459
					c-11.198-4.339-27.797-18.281-23.423-31.971c-1.032,0.399-2.07,0.856-3.102,1.372
					C582.571,271.359,582.026,278.424,586.705,281.696z"/>
			</g>
			<g>
				<circle style="fill:#3A3578;" cx="533.131" cy="361.542" r="90.291"/>
				<path style="fill:#C4D9E8;" d="M615.828,361.538c0,45.676-37.021,82.705-82.697,82.705c-45.676,0-82.697-37.029-82.697-82.705
					c0-45.668,37.022-82.697,82.697-82.697C578.806,278.841,615.828,315.87,615.828,361.538z"/>
				<path style="opacity:0.24;fill:#28275B;" d="M533.13,278.841c-45.673,0-82.698,37.025-82.698,82.698
					c0,45.679,37.025,82.704,82.698,82.704s82.698-37.025,82.698-82.704C615.829,315.866,578.804,278.841,533.13,278.841z
					 M533.13,426.478c-35.864,0-64.933-29.075-64.933-64.939c0-35.858,29.069-64.933,64.933-64.933s64.933,29.075,64.933,64.933
					C598.064,397.403,568.995,426.478,533.13,426.478z"/>
				<path style="opacity:0.16;fill:#A8C1D7;" d="M598.064,361.539c0,35.864-29.069,64.939-64.933,64.939
					s-64.933-29.075-64.933-64.939c0-35.858,29.069-64.933,64.933-64.933S598.064,325.681,598.064,361.539z"/>
				<polygon style="fill:#3D241D;" points="539.995,359.243 583.705,363.981 585.72,360.741 592.31,367.231 584.033,371.36 
					582.471,367.669 539.034,361.678 				"/>
				<polygon style="fill:#3D241D;" points="533.943,362.127 510.545,338.648 507.828,339.595 507.036,332.666 513.847,334.164 
					513.015,337.069 535.659,361.153 				"/>
				<path style="fill:#4F322B;" d="M535.342,370.784c-4.7-0.005-8.507-3.819-8.502-8.519c0.005-4.7,3.819-8.507,8.519-8.502
					c4.7,0.005,8.507,3.819,8.502,8.519C543.857,366.983,540.042,370.789,535.342,370.784z"/>
				<g>
					<path style="fill:#FFFFFF;" d="M532.942,290.166L532.942,290.166c-1.234,0-2.234-1-2.234-2.234v-6.858
						c0-1.234,1-2.234,2.234-2.234l0,0c1.233,0,2.233,1,2.233,2.234v6.858C535.175,289.166,534.175,290.166,532.942,290.166z"/>
					<path style="fill:#FFFFFF;" d="M532.942,444.046L532.942,444.046c-1.234,0-2.234-1-2.234-2.234v-6.858
						c0-1.233,1-2.233,2.234-2.233l0,0c1.233,0,2.233,1,2.233,2.233v6.858C535.175,443.046,534.175,444.046,532.942,444.046z"/>
				</g>
				<g>
					<path style="fill:#FFFFFF;" d="M583.342,311.043L583.342,311.043c-0.872-0.872-0.872-2.286,0-3.159l4.849-4.849
						c0.872-0.872,2.286-0.872,3.159,0l0,0c0.872,0.872,0.872,2.286,0,3.159l-4.849,4.849
						C585.629,311.915,584.215,311.915,583.342,311.043z"/>
					<path style="fill:#FFFFFF;" d="M474.533,419.852L474.533,419.852c-0.872-0.872-0.872-2.286,0-3.159l4.849-4.849
						c0.872-0.872,2.286-0.872,3.159,0l0,0c0.872,0.872,0.872,2.286,0,3.159l-4.849,4.849
						C476.819,420.725,475.405,420.725,474.533,419.852z"/>
				</g>
				<g>
					<path style="fill:#FFFFFF;" d="M604.219,361.444L604.219,361.444c0-1.234,1-2.234,2.234-2.234h6.858
						c1.234,0,2.234,1,2.234,2.234l0,0c0,1.234-1,2.234-2.234,2.234h-6.858C605.219,363.677,604.219,362.677,604.219,361.444z"/>
					<path style="fill:#FFFFFF;" d="M450.339,361.444L450.339,361.444c0-1.234,1-2.234,2.234-2.234h6.858
						c1.234,0,2.234,1,2.234,2.234l0,0c0,1.234-1,2.234-2.234,2.234h-6.858C451.339,363.677,450.339,362.677,450.339,361.444z"/>
				</g>
				<g>
					<path style="fill:#FFFFFF;" d="M583.342,411.844L583.342,411.844c0.872-0.872,2.286-0.872,3.159,0l4.849,4.849
						c0.872,0.872,0.872,2.286,0,3.159l0,0c-0.872,0.872-2.286,0.872-3.159,0l-4.849-4.849
						C582.47,414.131,582.47,412.717,583.342,411.844z"/>
					<path style="fill:#FFFFFF;" d="M474.533,303.035L474.533,303.035c0.872-0.872,2.286-0.872,3.159,0l4.849,4.849
						c0.872,0.872,0.872,2.286,0,3.159l0,0c-0.872,0.872-2.286,0.872-3.159,0l-4.849-4.849
						C473.661,305.322,473.661,303.907,474.533,303.035z"/>
				</g>
			</g>
		</g>
		<g>
			<g>
				<circle style="fill:#F7E5D7;" cx="205.492" cy="367.776" r="74.51"/>
				<circle style="fill:#EC755F;" cx="205.492" cy="367.776" r="53.182"/>
				
					<ellipse transform="matrix(0.9846 -0.1746 0.1746 0.9846 -61.0594 41.53)" style="fill:#F7E5D7;" cx="205.492" cy="367.776" rx="33.088" ry="33.088"/>
				<circle style="fill:#EC755F;" cx="205.492" cy="367.776" r="17.014"/>
				<path style="fill:#F7E5D7;" d="M200.534,367.776c0,2.738,2.22,4.958,4.958,4.958c2.738,0,4.958-2.22,4.958-4.958
					c0-2.738-2.22-4.958-4.958-4.958C202.754,362.818,200.534,365.038,200.534,367.776z"/>
			</g>
			<g>
				<line style="fill:none;stroke:#020202;stroke-miterlimit:10;" x1="204.517" y1="368.338" x2="139.671" y2="322.143"/>
				<polygon style="fill:#A8C1D7;" points="152.505,330.704 153.658,322.849 143.214,314.948 146.133,326.237 				"/>
				<polygon style="fill:#A8C1D7;" points="152.505,330.704 145.34,333.454 135.567,327.216 146.133,326.237 				"/>
				<polygon style="fill:#020202;" points="207.586,370.333 201.841,362.011 197.404,368.883 				"/>
			</g>
		</g>
		<g>
			<path style="fill:#FFC080;" d="M479.644,431.57H256.797c0-134.209,95.871-129.439,95.871-167.777
				c0-27.566-49.548-46.459-77.407-96.759c-10.887-19.665-18.465-44.131-18.465-75.789h222.847c0,5.95-0.271,11.649-0.772,17.107
				c-9.091,97.855-95.089,119.127-95.089,155.44C383.783,302.131,479.644,297.361,479.644,431.57z"/>
			<path style="opacity:0.35;fill:#FD5457;" d="M479.644,91.245c0,5.95-0.271,11.649-0.772,17.107
				c-129.836-2.766-183.267,35.52-203.61,58.681c-10.887-19.665-18.465-44.131-18.465-75.789H479.644z"/>
			<path style="fill:#EC755F;" d="M451.963,429.18H270.084l86.822-81.446l5.835-5.469v-79.776c0-17.702-13.976-30.844-31.647-47.502
				c-4.405-4.175-9.112-8.59-13.851-13.36h101.925c-4.739,4.801-9.415,9.217-13.82,13.36c-17.671,16.659-31.647,29.8-31.647,47.502
				v80.987L451.963,429.18z"/>
			<rect x="241.575" y="74.889" style="fill:#C48F6B;" width="249.938" height="23.563"/>
			<rect x="241.575" y="429.178" style="fill:#C48F6B;" width="249.938" height="23.563"/>
		</g>
		<g>
			<path style="fill:#3397D1;" d="M172.232,386.234c-0.251,17.411,8.047,45.928,8.047,45.928l13.728,0.525
				c0,0,0.929-11.464,1.304-22.5c0.144-4.076,0.203-8.091,0.118-11.454c-0.317-12.453,4.48-53.128,4.48-53.128l1.636,3.47l0,0.006
				l17.548,37.241c-2.133,12.311,1.508,47.382,1.508,47.382l11.176,0.427c0,0,1.748-6.109,4.046-14.392
				c3.939-14.218,9.495-34.835,10.55-41.869c1.549-10.358-15.065-52.668-25.717-70.366c-0.795-1.32-1.555-2.503-2.273-3.524
				c0,0-22.478-37.937-44.493-6.587S172.483,368.828,172.232,386.234z"/>
			<polygon style="fill:#F6A87C;" points="220.597,433.702 221.339,446.097 230.324,446.441 231.778,434.13 			"/>
			<path style="fill:#3D2545;" d="M221.339,446.097l8.985,0.343c0,0,3.954,4.722,10.716,5.953c6.762,1.231,5.574,5.807,2.26,7.139
				c-3.314,1.333-22.443-0.858-22.443-0.858L221.339,446.097z"/>
			<polygon style="fill:#F6A87C;" points="194.005,432.686 193.568,444.109 185.138,443.787 180.279,432.161 			"/>
			<path style="fill:#3D2545;" d="M185.138,443.787c-0.98,4.967-2.777,13.75,0.63,14.195c3.407,0.445,12.443,0.475,14.464,0.553
				c4.06,0.155,3.136-5.505-3.699-8.579l-2.965-5.847"/>
			<path style="fill:none;stroke:#3262B7;stroke-miterlimit:10;" d="M201.237,302.027c3.33,11.894,6.234,31.281,6.234,31.281
				l-3.805,2.369l-7.95-33.985"/>
			<path style="opacity:0.17;fill:#3C2D3F;" d="M172.232,386.234c-0.251,17.411,8.047,45.928,8.047,45.928l13.728,0.525
				c0,0,0.929-11.464,1.304-22.5c-3.697-0.153-8.542,10.528-13.135,3.621c-5.784-8.71-3.387-19.58,5.214-19.251
				c8.594,0.328,8.472-7.449,3.426-9.772c-5.04-2.316-12.958-3.323-16.681-16.899c-3.722-13.582-5.919-48.668,4.792-56.21
				c10.705-7.535,29.119,1.633,41.733-4.155l-0.005-0.018c-0.795-1.32-1.555-2.503-2.273-3.524c0,0-22.478-37.937-44.493-6.587
				S172.483,368.828,172.232,386.234z"/>
			<path style="opacity:0.17;fill:#3C2D3F;" d="M219.092,386.321c-2.133,12.311,1.508,47.382,1.508,47.382l11.176,0.427
				c0,0,1.748-6.109,4.046-14.392c-4.433,2.989-9.212,0.506-8.769-8.463c0.556-11.289,2.276-16.53,8.839-18.757
				c6.556-2.222,9.666-10.373-2.131-10.333c-11.791,0.04-22.521-12.526-32.217-33.104L219.092,386.321z"/>
			<path style="fill:#F6A87C;" d="M279.972,222.056c2.87-0.471,7.41,1.781,10.979-0.508c3.569-2.289,6.969-2.094,6.844-4.031
				c-0.122-1.878-5.168-1.224-5.477-1.186c3.641-1.743,9.186-8.841,8.145-9.611c-0.637-0.468-1.563,0.462-2.196,1.26
				c1.301-2.002,3.003-5.352,2.024-6.238c-0.536-0.477-1.44,0.306-2.256,1.299c0.495-0.926,0.805-1.833,0.439-2.246
				c-0.52-0.601-1.586,0.438-2.254,1.234c0.568-1.006-0.347-1.258-1.608-0.414c-1.538,1.031-9.083,8.56-14.569,12.058
				c-5.491,3.498-15.103,8.163-26.01,12.795c-7.834,3.328-14.2,5.806-20.076,8.133c-2.298,0.908-4.524,1.794-6.733,2.698
				l6.901,13.186c0,0,7.361-2.75,14.363-5.517C255.482,242.199,277.102,222.521,279.972,222.056z"/>
			<path style="fill:#EA8363;" d="M234.124,250.484c0,0,7.361-2.75,14.363-5.517c6.995-2.767,28.614-22.446,31.485-22.91
				c-6.035-0.51-23.406,15.71-27.859,18.316c-4.453,2.6-11.825,2.109-18.156-5.772c-2.298,0.908-4.524,1.794-6.733,2.698
				L234.124,250.484z"/>
			<path style="fill:#FD5457;" d="M228.56,259.358l-12.703,6.837l1.179,9.039l0.616,4.749l0.042,1.326l0.689,22.671l-43.881-4.426
				l-7.004-24.79l-1.827,2.682l-15.406-6.91c-0.01,0-0.021,0-0.031-0.01l-1.357-0.605c0,0,7.212-15.709,11.419-24.675
				c2.933-6.273,8.152-8.893,15.949-9.572c3.361-0.303,7.202-0.23,11.544,0.063c0,0,6.565-0.762,13.882-0.282
				c1.983,0.125,4.018,0.344,5.991,0.699l-0.188-0.856c11.889,1.065,42.263-6.482,42.263-6.482l3.121,17.473L228.56,259.358z"/>
			<path style="fill:#47394A;" d="M169.836,208.103c0,12.079,6.237,22.865,6.237,22.865s16.926,7.077,35.411-2.657l-0.135-6.69
				l-0.423-20.809l-19.993-16.742c-12.897,2.962-19.485,10.039-20.83,20.003C169.923,205.367,169.836,206.713,169.836,208.103z"/>
			<path style="fill:#372C3A;" d="M169.836,208.103c0,12.079,6.237,22.865,6.237,22.865s16.926,7.077,35.411-2.657l-0.135-6.69
				c-11.486,2.276-33.173,0.436-41.246-17.548C169.923,205.367,169.836,206.713,169.836,208.103z"/>
			<path style="fill:#D35057;" d="M218.383,303.979l-43.881-4.426l-7.004-24.79l-1.827,2.682l-15.406-6.91
				c9.895,3.862,14.717-4.311,20.333-3.413c5.615,0.898,7.359,9.185,17.306,17.671c9.958,8.465,25.719,10.198,27.055-1.054
				c0.47-3.945,1.19-6.743,2.077-8.507l0.616,4.749l0.042,1.326L218.383,303.979z"/>
			<path style="fill:#F6A87C;" d="M144.099,286.996c0.759,4.448,22.3,10.554,27.997,12.86c5.703,2.312,9.935,1.166,11.111-0.966
				c1.176-2.126,0.8-2.974,1.2-3.693c0.394-0.724,2.665-2.235,2.409-3.593c-0.255-1.365-1.208-2.134-4.174-1.757
				c-2.96,0.378-5.265-0.45-5.265-0.45s3.408-2.325,3.363-4.414c-0.008-0.414-0.077-0.766-0.178-1.06
				c-0.342-0.954-1.614-1.121-2.196-0.291c-0.613,0.87-1.532,2-2.462,2.52c-1.632,0.914-3.809,2.309-3.881,4.643
				c0,0-3.713-5.306-5.695-8.085c-1.982-2.779-3.924-3.344-3.924-3.344l1.889-2.536l-14.063-6.305
				C145.565,276.972,143.34,282.554,144.099,286.996z"/>
			<path style="fill:#F6A87C;" d="M176.246,235.673c3.268,5.206,10.58,15.862,15.819,16.062c6.639,0.254,8.789-5.213,9.602-16.279
				c-7.311-0.48-13.883,0.28-13.883,0.28C183.443,235.445,179.606,235.375,176.246,235.673z"/>
			<g>
				<path style="fill:#F6A87C;" d="M195.796,229.819l-0.234,6.133c-0.078,2.03-1.786,3.612-3.816,3.535l0,0
					c-2.03-0.077-3.612-1.786-3.535-3.816l0.507-13.277L195.796,229.819z"/>
				<path style="fill:#EA8363;" d="M188.468,228.96c2.239,6.367,7.121,6.281,7.121,6.281l0.207-5.422l-7.077-7.424L188.468,228.96z"
					/>
				<path style="fill:#F6A87C;" d="M180.771,218.266c0.651,5.095,6.268,12.917,14.433,13.229c7.45,0.285,18.865-8.132,18.082-25.985
					c-0.074-1.697,0.239-3.474,0.251-5.336l-8.045-9.442l-10.59,4.401l-2.384,1.201l-11.124,5.614
					C181.394,201.947,180.12,213.166,180.771,218.266z"/>
				<path style="fill:#F6A87C;" d="M182.803,210.205c-0.43-4.129-4.702-5.075-6.371-2.398c-1.669,2.678,1.015,11.418,4.34,10.457
					L182.803,210.205z"/>
				<path style="fill:#EA8363;" d="M180.672,211.075c0.094-1.721-2.315-2.232-2.366-1.042c-0.138,3.202,1.305,4.678,2.208,5.176
					L180.672,211.075z"/>
				<path style="fill:#333333;" d="M203.772,213.2c-0.037,0.975,0.317,1.78,0.791,1.798c0.474,0.018,0.889-0.757,0.926-1.732
					c0.037-0.975-0.317-1.78-0.791-1.798C204.224,211.45,203.809,212.225,203.772,213.2z"/>
				<path style="fill:#333333;" d="M193.275,212.799c-0.037,0.975,0.317,1.78,0.791,1.798c0.474,0.018,0.889-0.758,0.926-1.733
					c0.037-0.975-0.317-1.78-0.791-1.798C193.727,211.049,193.312,211.824,193.275,212.799z"/>
				<path style="fill:none;stroke:#EA8363;stroke-miterlimit:10;" d="M199.41,214.802c-0.565,2.272,0.805,3.949,0.57,5.087
					c-0.235,1.138-2.308,0.39-2.308,0.39"/>
				<path style="fill:#FFFFFF;" d="M195.751,223.263c-2.083-0.749-5.034-3.537-5.034-3.537s-1.386,3.77,0.948,5.197
					C193.999,226.35,195.751,223.263,195.751,223.263z"/>
			</g>
			<path style="fill:#47394A;" d="M176.04,205.643c5.07,3.075,18.325,3.274,18.325,3.274l1.669-13.962l5.739,13.908l10.749,1.233
				l0.759-5.456l1.506,6.11l5.115,0.195c1.37-18.493-11.235-31.214-28.97-26.875C179.592,186.849,170.964,202.568,176.04,205.643z"
				/>
			<path style="fill:#EA8363;" d="M144.099,286.996c0.759,4.448,22.3,10.554,27.997,12.86c5.703,2.312,9.935,1.166,11.111-0.966
				c-4.435,2.753-8.227-1.592-12.792-2.092c-4.565-0.506-24.44-7.512-22.926-13.062c1.514-5.556,5.303-5.961,14.915-4.369
				l1.889-2.536l-14.063-6.305C145.565,276.972,143.34,282.554,144.099,286.996z"/>
			<polygon style="fill:#FD5457;" points="220.658,294.669 217.694,281.309 217.652,279.983 			"/>
		</g>
		<g>
			<path style="fill:#F6A87C;" d="M409.287,259.07c-5.563-5.778-11.82-5.003-11.174-3.388c0.913,2.284,5.024,3.388,5.024,3.388
				s-7.764-0.769-8.45,1.575c-0.685,2.344,3.882,0.974,3.882,0.974s-6.851,1.142-6.623,2.969s4.796,0.913,4.796,0.913
				s-3.197,0.457-2.74,2.512c0.228,1.028,1.881,1.028,3.477,0.771c1.596-0.257,3.135-0.771,3.135-0.771s-2.958,1.37-2.501,2.74
				c0.457,1.37,14.159-2.512,14.159-2.512l-1.143-9.165L409.287,259.07z"/>
			<g>
				<path style="fill:#47394A;" d="M463.135,435.633c-0.032,0.065-0.071,0.123-0.11,0.188c-0.065,0.104-0.116,0.194-0.162,0.278
					c-2.686,4.452-4.537,7.203-4.537,7.203l-11.616-2.336l12.192-65.497l1.029-5.527l16.198,7.474l6.161,2.847
					C485.312,395.898,470.972,422.567,463.135,435.633z"/>
				<path style="fill:#47394A;" d="M506.26,328.809c0,0-0.298,0.828-0.828,2.278c-1.262,3.436-3.831,10.341-6.873,17.906
					c-4.433,11.008-9.849,23.394-13.655,28.474c-0.822,1.094-1.702,2.026-2.615,2.796c-2.712,2.304-5.773,3.274-8.795,3.307
					c-5.3,0.078-10.503-2.692-13.564-6.103c-0.434-0.485-0.777-1.158-1.029-2c-2.498-8.296,3.495-33.127,9.824-59.026
					c0.977-4.032,1.967-8.083,2.938-12.102l16.644-4.316v-0.007l2.472-0.641l6.044-1.566l0.731,2.414l4.381,14.373L506.26,328.809z"
					/>
				<path style="fill:#3C2D3F;" d="M505.432,331.087c-1.262,3.436-3.831,10.341-6.873,17.906
					c-4.433,11.008-9.849,23.394-13.655,28.474c-0.822,1.094-1.702,2.026-2.615,2.796c3.022,15.635-11.318,42.303-19.155,55.369
					c3.98-6.342,6.484-37.948,10.361-52.063c0.809-2.938,1.676-5.119,2.634-6.154c5.527-5.999,14.153-22.113,14.334-60.339
					l8.872,1.327L505.432,331.087z"/>
				<path style="fill:#F75756;" d="M458.325,443.3c-2.263,6.783-1.086,13.255-3.734,15.02c-2.647,1.765-12.061-2.059-20.886-1.765
					c-8.825,0.294-13.826-5.589-11.767-9.413c2.059-3.824,18.659,0.885,24.773-6.176L458.325,443.3z"/>
				<path style="fill:#EF7D7D;" d="M441.35,444.152c2.765,3.274,2.29,4.378-0.715,5.724c-3.006,1.346-5.035-4.761-5.035-4.761
					L441.35,444.152z"/>
				<path style="fill:#47394A;" d="M528.78,369.941c16.161,11.176,27.273,65.924,27.273,65.924l-10.232,3.683l-38.046-62.047
					L528.78,369.941z"/>
				<path style="fill:#F75756;" d="M556.053,435.866c1.226,4.334,8.018,12.504,9.079,17.021l-19.289,6.943
					c-1.291,0.465-2.706-0.335-2.939-1.686c-0.22-1.279-0.259-2.946,0.351-4.731c1.326-3.879,4.09-5.691,4.119-7.879
					c0.029-2.188-1.553-5.985-1.553-5.985L556.053,435.866z"/>
				<path style="fill:#EF7D7D;" d="M547.374,445.534c5.318-1.551,8.942-1.76,9.327,0.243c0.385,2.004-8.18,2.197-12.137,4.898
					L547.374,445.534z"/>
				<path style="fill:#47394A;" d="M529.919,381.629c-6.853,5.481-13.325,8.225-19.453,0c-2.66-3.566-7.449-17.305-11.907-32.635
					c-3.165-10.866-6.154-22.527-8.096-31.917c-1.644-7.908-2.537-14.205-2.155-17.052v-0.007c0.045-0.33,0.123-0.641,0.227-0.919
					c2.258-6.018,18.068-0.68,28.306,3.52c5.086,2.09,8.794,3.896,8.794,3.896c0.246,1.508,0.511,3.106,0.783,4.782
					C530.385,335.753,536.326,376.497,529.919,381.629z"/>
				<path style="fill:#3C2D3F;" d="M526.419,311.297c-7.876-0.278-16.308,1.469-24.481,3.301c-3.915,0.88-7.772,1.773-11.474,2.479
					c-8.342,1.573-15.926,2.174-21.737-0.634c0.977-4.032,1.967-8.083,2.938-12.102l16.644-4.316v-0.007
					c0.045-0.33,0.123-0.641,0.227-0.919l2.245,0.278l6.776,0.848l19.285,2.394c5.086,2.09,8.794,3.896,8.794,3.896
					C525.881,308.023,526.147,309.621,526.419,311.297z"/>
				<path style="fill:#EA8363;" d="M482.537,219.033c-29.417,22.239-54.428,40.734-73.25,40.037v15.305
					c0,0,47.467,1.756,67.256-18.808C496.332,235.002,482.537,219.033,482.537,219.033z"/>
				<path style="fill:#EA8363;" d="M525.637,306.51H468.73c0,0-0.083-21.189,1.075-42.127c0.877-15.949,2.474-31.752,5.386-37.941
					c6.712-14.3,26,2.025,26,2.025l10.855,18.256l5.313,8.945c1.754,5.657,3.371,14.373,4.708,23.005
					c0.021,0.125,0.031,0.219,0.042,0.282C524.249,292.889,525.637,306.51,525.637,306.51z"/>
				<path style="fill:#E25A47;" d="M522.12,279.048c-27.639,13.172-30.938,22.274-35.844,27.462H468.73
					c0,0-0.083-21.189,1.075-42.127c7.505-1.962,37.889-10.313,42.242-17.661c4.676-7.912,9.499,27.869,10.02,31.95
					c0.021,0.125,0.031,0.219,0.042,0.282C522.12,279.017,522.12,279.048,522.12,279.048z"/>
				<path style="fill:#F6A87C;" d="M441.258,290.911c-5.563-5.777-11.82-5.003-11.174-3.388c0.914,2.284,5.024,3.388,5.024,3.388
					s-7.764-0.769-8.45,1.575c-0.685,2.344,3.882,0.974,3.882,0.974s-6.851,1.142-6.623,2.969c0.228,1.827,4.796,0.914,4.796,0.914
					s-3.197,0.457-2.74,2.512c0.228,1.028,1.881,1.028,3.477,0.771c1.596-0.257,3.135-0.771,3.135-0.771s-2.958,1.37-2.501,2.74
					c0.457,1.37,14.159-2.512,14.159-2.512l-1.143-9.165L441.258,290.911z"/>
				<path style="fill:#EA8363;" d="M487.275,218.401c18.99,1.042,40.866,18.47,34.813,39.739
					c-6.053,21.269-60.462,47.485-78.269,44.517l-1.979-12.499c0,0,44.451-18.168,51.904-37.954
					c7.452-19.785-9.122-30.778-9.122-30.778L487.275,218.401z"/>
				<path style="fill:#47394A;" d="M459.809,177.27c1.519-5.655,8.103-6.497,8.324,0c0,0,5.072-10.022,13.848-9.452
					c8.777,0.57,2.047,5.648,2.047,5.648s13.376,0.808,17.553,10.491c4.177,9.684-3.32,23.862-14.756,30.111
					c-11.436,6.248-25.307-29.238-25.307-29.238L459.809,177.27z"/>
				<g>
					<path style="fill:#F6A87C;" d="M479.262,216.719v4.959c0,2.632,2.133,4.765,4.765,4.765l0,0c2.632,0,4.765-2.133,4.765-4.765
						v-12.041L479.262,216.719z"/>
					<path style="fill:#EA8363;" d="M488.792,216.146c-3.214,6.219-9.53,5.948-9.53,5.948v-5.375l9.53-7.082V216.146z"/>
					<path style="fill:#F6A87C;" d="M459.809,186.699c-0.678,21.139,8.878,31.702,16.967,31.702c8.09,0,13.948-7.532,14.785-12.553
						c0.837-5.021,0-16.179,0-16.179l-13.111-7.253l-7.253-3.348L459.809,186.699z"/>
					<path style="fill:#F6A87C;" d="M489.856,197.793c0.582-4.071,4.846-4.846,6.397-2.132c1.551,2.714-1.437,11.265-4.693,10.188
						L489.856,197.793z"/>
					<path style="fill:#EA8363;" d="M491.932,198.735c-0.028-1.707,2.376-2.122,2.382-0.942c0.016,3.176-1.469,4.582-2.382,5.04
						V198.735z"/>
					<path style="fill:#333333;" d="M468.984,199.965c0,0.966-0.381,1.75-0.852,1.75c-0.47,0-0.851-0.784-0.851-1.75
						c0-0.967,0.381-1.75,0.851-1.75C468.603,198.215,468.984,198.999,468.984,199.965z"/>
					<path style="fill:#333333;" d="M479.391,199.965c0,0.966-0.381,1.75-0.851,1.75c-0.47,0-0.852-0.784-0.852-1.75
						c0-0.967,0.381-1.75,0.852-1.75C479.009,198.215,479.391,198.999,479.391,199.965z"/>
					<path style="fill:none;stroke:#EA8363;stroke-miterlimit:10;" d="M473.241,201.715c0.473,2.271-0.946,3.879-0.757,5.014
						c0.189,1.135,2.271,0.473,2.271,0.473"/>
					<path style="fill:#FFFFFF;" d="M476.544,210.23c2.09-0.662,5.118-3.311,5.118-3.311s1.23,3.784-1.135,5.109
						C478.161,213.352,476.544,210.23,476.544,210.23z"/>
				</g>
				<path style="fill:#47394A;" d="M486.789,192.498c2.413,5.843,3.585,8.489,3.585,8.489c0.986-0.983,2.316-10.521,2.316-10.521
					l-6.409-2.561L486.789,192.498z"/>
				<path style="fill:#47394A;" d="M459.809,177.27c-7.172,13.222,4.87,20.107,9.175,19.853c4.306-0.254,0-4.856,0-4.856
					s12.585,8.08,17.027,5.9s1.66-6.615,1.66-6.615s3.635,5.749,8.582,4.109c4.948-1.64,0.675-12.273-6.397-14.551
					c-7.073-2.279-18.659-2.04-18.659-2.04l-7.971,2.989L459.809,177.27z"/>
				<path style="fill:#EA8363;" d="M506.998,296.789c-0.162-0.007-0.324-0.026-0.485-0.052
					C506.674,296.704,506.843,296.717,506.998,296.789z"/>
			</g>
		</g>
		<path style="fill:#FD5457;" d="M348.963,429.18h-78.879l86.822-81.446c-11.294,34.946-34.643,51.427-29.226,66.812
			C330.091,421.414,338.682,426.059,348.963,429.18z"/>
		<g>
			<path style="fill:#EBEFF2;" d="M642.351,153.316c3.095-2.977,3.182-8.512,0.182-11.585c-2.999-3.073-8.535-3.119-11.586-0.097
				c3.487-3.488,4.167-9.264,2.087-13.736c-2.08-4.472-6.578-7.578-11.413-8.549c-7.572-1.522-16.38,2.839-18.291,10.322
				c1.95-3.461,1.402-7.994-0.818-11.289c-2.22-3.294-5.884-5.426-9.731-6.417c-7.385-1.902-15.694,0.328-21.135,5.67
				c-5.441,5.343-7.822,13.61-6.055,21.028c-0.177-2.405-3.611-3.398-5.624-2.072s-2.746,3.932-2.915,6.337
				c-0.375,5.34,2.275,11.652,7.561,12.503l4.905,0.239c24.16,0,48.32,0,72.481,0c-4.301,0-8.603,0-12.904,0L642.351,153.316z"/>
		</g>
		<g>
			<path style="fill:#EBEFF2;" d="M566.335,215.01c1.634-1.572,1.68-4.494,0.096-6.117s-4.507-1.647-6.117-0.051
				c1.841-1.842,2.2-4.892,1.102-7.253c-1.098-2.361-3.473-4.001-6.026-4.514c-3.998-0.803-8.649,1.499-9.658,5.451
				c1.029-1.828,0.74-4.221-0.432-5.961c-1.172-1.74-3.107-2.865-5.138-3.388c-3.899-1.004-8.287,0.173-11.16,2.994
				c-2.873,2.821-4.13,7.186-3.197,11.103c-0.094-1.27-1.906-1.794-2.97-1.094c-1.063,0.7-1.45,2.076-1.539,3.346
				c-0.198,2.82,1.202,6.153,3.992,6.602l2.59,0.126c12.757,0,25.514,0,38.272,0c-2.271,0-4.542,0-6.814,0L566.335,215.01z"/>
		</g>
		<g>
			<path style="fill:#EBEFF2;" d="M502.054,144.648c2.42-2.327,2.488-6.656,0.143-9.058c-2.345-2.403-6.674-2.439-9.059-0.076
				c2.727-2.727,3.258-7.244,1.632-10.741c-1.626-3.497-5.143-5.925-8.924-6.685c-5.921-1.19-12.808,2.22-14.302,8.071
				c1.525-2.706,1.096-6.251-0.64-8.827c-1.736-2.576-4.601-4.243-7.609-5.018c-5.774-1.487-12.272,0.256-16.526,4.434
				c-4.255,4.178-6.116,10.642-4.735,16.442c-0.138-1.88-2.823-2.657-4.398-1.62c-1.575,1.037-2.147,3.074-2.28,4.955
				c-0.293,4.176,1.779,9.111,5.912,9.777l3.835,0.187c18.892,0,37.783,0,56.675,0c-3.363,0-6.727,0-10.09,0L502.054,144.648z"/>
		</g>
		<g>
			<path style="fill:#EBEFF2;" d="M166.033,197.781c2.204-2.12,2.266-6.061,0.13-8.249c-2.136-2.188-6.077-2.221-8.249-0.069
				c2.483-2.483,2.967-6.596,1.486-9.781c-1.481-3.184-4.684-5.395-8.127-6.087c-5.392-1.083-11.663,2.021-13.024,7.35
				c1.388-2.464,0.998-5.692-0.582-8.038s-4.19-3.864-6.929-4.569c-5.258-1.354-11.174,0.233-15.049,4.037
				c-3.874,3.804-5.569,9.691-4.312,14.973c-0.126-1.712-2.571-2.419-4.005-1.475c-1.434,0.944-1.955,2.8-2.076,4.512
				c-0.267,3.802,1.62,8.297,5.384,8.903l3.493,0.17c17.203,0,34.406,0,51.608,0c-3.063,0-6.126,0-9.188,0L166.033,197.781z"/>
		</g>
	</g>
</g>
</svg>
